<?xml version="1.0" encoding="utf-8"?>
<!-- Generator: Adobe Illustrator 16.0.0, SVG Export Plug-In . SVG Version: 6.00 Build 0)  -->
<!DOCTYPE svg PUBLIC "-//W3C//DTD SVG 1.0//EN" "http://www.w3.org/TR/2001/REC-SVG-20010904/DTD/svg10.dtd">
<svg version="1.0" id="Layer_1" xmlns="http://www.w3.org/2000/svg" xmlns:xlink="http://www.w3.org/1999/xlink" x="0px" y="0px"
	 width="148px" height="20px" viewBox="0 0 148 20" enable-background="new 0 0 148 20" xml:space="preserve">
<g>
	<path fill="#FFFFFF" d="M122.402,0.58l6.392,18.81h-4.396l-1.181-3.484h-6.076l-1.181,3.484h-4.409l6.391-18.81H122.402z
		 M118.427,12.081h3.464l-1.719-5.09L118.427,12.081z"/>
	<path fill="#FFFFFF" d="M142.902,0.58v3.811h-4.855V19.39h-4.147V4.391h-4.854V0.58H142.902z"/>
</g>
<path fill="#93186C" d="M19.032,19V9.146H9.646v3.484h5.538c-0.234,1.04-1.508,3.017-4.55,3.017c-2.99,0-5.538-2.002-5.538-5.851
	c0-4.108,2.938-5.772,5.434-5.772c3.068,0,4.29,2.08,4.576,3.224l3.952-1.378c-0.806-2.574-3.25-5.694-8.528-5.694
	c-5.2,0-9.594,3.822-9.594,9.62c0,5.824,4.212,9.595,9.334,9.595c2.626,0,4.368-1.093,5.174-2.263L15.704,19H19.032z"/>
<path fill="#93186C" d="M43.37,19V0.566h-5.642l-4.81,12.454l-5.07-12.454h-5.356V19h3.9V6.936L31.202,19h3.328l4.81-12.22V19H43.37
	z"/>
<path fill="#93186C" d="M59.075,19v-3.9h-7.592v-3.535h6.864V7.95h-6.864V4.44h7.566V0.566H47.375V19H59.075z"/>
<path fill="#FFFFFF" d="M66.691,19v-6.891h6.812V8.366h-6.838v-3.9h7.774v-3.9H62.557V19H66.691z"/>
<path fill="#FFFFFF" d="M89.398,19v-3.926h-7.957V0.566h-4.107V19H89.398z"/>
<path fill="#FFFFFF" d="M94.826,9.77c0-3.848,2.757-5.59,5.331-5.59c2.548,0,5.304,1.742,5.304,5.59s-2.756,5.564-5.304,5.564
	C97.583,15.334,94.826,13.618,94.826,9.77z M90.563,9.796c0,5.824,4.395,9.595,9.595,9.595c5.174,0,9.567-3.771,9.567-9.595
	c0-5.85-4.394-9.62-9.567-9.62C94.957,0.176,90.563,3.946,90.563,9.796z"/>
</svg>
